<svg width="14" height="14" viewBox="0 0 14 14" fill="none" xmlns="http://www.w3.org/2000/svg">
<path d="M14 2.99996C14 2.46953 13.7893 1.96082 13.4142 1.58575C13.0391 1.21067 12.5304 0.999958 12 0.999958H11.5V0.514019C11.5 0.244955 11.2931 0.0140169 11.0241 0.00057937C10.9565 -0.00267789 10.8889 0.00782443 10.8255 0.03145C10.762 0.0550756 10.7041 0.0913326 10.6551 0.138024C10.6061 0.184715 10.5671 0.240869 10.5404 0.303082C10.5138 0.365295 10.5 0.432273 10.5 0.499956V0.999958H3.5V0.514019C3.5 0.244955 3.29313 0.0140169 3.02406 0.00057937C2.95646 -0.00267789 2.8889 0.00782443 2.82547 0.03145C2.76204 0.0550756 2.70407 0.0913326 2.65508 0.138024C2.60608 0.184715 2.56707 0.240869 2.54041 0.303082C2.51375 0.365295 2.50001 0.432273 2.5 0.499956V0.999958H2C1.46957 0.999958 0.960859 1.21067 0.585786 1.58575C0.210714 1.96082 0 2.46953 0 2.99996V3.37497C0 3.40812 0.0131696 3.43991 0.0366117 3.46335C0.0600537 3.4868 0.0918479 3.49997 0.125 3.49997H13.875C13.9082 3.49997 13.9399 3.4868 13.9634 3.46335C13.9868 3.43991 14 3.40812 14 3.37497V2.99996ZM0 12C0 12.5304 0.210714 13.0391 0.585786 13.4142C0.960859 13.7893 1.46957 14 2 14H12C12.5304 14 13.0391 13.7893 13.4142 13.4142C13.7893 13.0391 14 12.5304 14 12V4.59372C14 4.56885 13.9901 4.54501 13.9725 4.52743C13.955 4.50985 13.9311 4.49997 13.9062 4.49997H0.09375C0.068886 4.49997 0.0450403 4.50985 0.0274588 4.52743C0.00987725 4.54501 0 4.56885 0 4.59372V12ZM10.75 5.49997C10.8983 5.49997 11.0433 5.54396 11.1667 5.62637C11.29 5.70878 11.3861 5.82592 11.4429 5.96296C11.4997 6.10001 11.5145 6.25081 11.4856 6.39629C11.4566 6.54178 11.3852 6.67542 11.2803 6.78031C11.1754 6.8852 11.0418 6.95663 10.8963 6.98557C10.7508 7.0145 10.6 6.99965 10.463 6.94289C10.3259 6.88612 10.2088 6.78999 10.1264 6.66665C10.044 6.54332 10 6.39831 10 6.24997C10 6.05106 10.079 5.8603 10.2197 5.71964C10.3603 5.57899 10.5511 5.49997 10.75 5.49997ZM10.75 7.99998C10.8983 7.99998 11.0433 8.04397 11.1667 8.12638C11.29 8.20879 11.3861 8.32592 11.4429 8.46297C11.4997 8.60001 11.5145 8.75081 11.4856 8.8963C11.4566 9.04179 11.3852 9.17542 11.2803 9.28031C11.1754 9.3852 11.0418 9.45663 10.8963 9.48557C10.7508 9.51451 10.6 9.49966 10.463 9.44289C10.3259 9.38613 10.2088 9.29 10.1264 9.16666C10.044 9.04332 10 8.89832 10 8.74998C10 8.55107 10.079 8.3603 10.2197 8.21965C10.3603 8.079 10.5511 7.99998 10.75 7.99998ZM8.25 5.49997C8.39834 5.49997 8.54334 5.54396 8.66668 5.62637C8.79001 5.70878 8.88614 5.82592 8.94291 5.96296C8.99967 6.10001 9.01453 6.25081 8.98559 6.39629C8.95665 6.54178 8.88522 6.67542 8.78033 6.78031C8.67544 6.8852 8.5418 6.95663 8.39632 6.98557C8.25083 7.0145 8.10003 6.99965 7.96299 6.94289C7.82594 6.88612 7.70881 6.78999 7.6264 6.66665C7.54399 6.54332 7.5 6.39831 7.5 6.24997C7.5 6.05106 7.57902 5.8603 7.71967 5.71964C7.86032 5.57899 8.05109 5.49997 8.25 5.49997ZM8.25 7.99998C8.39834 7.99998 8.54334 8.04397 8.66668 8.12638C8.79001 8.20879 8.88614 8.32592 8.94291 8.46297C8.99967 8.60001 9.01453 8.75081 8.98559 8.8963C8.95665 9.04179 8.88522 9.17542 8.78033 9.28031C8.67544 9.3852 8.5418 9.45663 8.39632 9.48557C8.25083 9.51451 8.10003 9.49966 7.96299 9.44289C7.82594 9.38613 7.70881 9.29 7.6264 9.16666C7.54399 9.04332 7.5 8.89832 7.5 8.74998C7.5 8.55107 7.57902 8.3603 7.71967 8.21965C7.86032 8.079 8.05109 7.99998 8.25 7.99998ZM8.25 10.5C8.39834 10.5 8.54334 10.544 8.66668 10.6264C8.79001 10.7088 8.88614 10.8259 8.94291 10.963C8.99967 11.1 9.01453 11.2508 8.98559 11.3963C8.95665 11.5418 8.88522 11.6754 8.78033 11.7803C8.67544 11.8852 8.5418 11.9566 8.39632 11.9856C8.25083 12.0145 8.10003 11.9997 7.96299 11.9429C7.82594 11.8861 7.70881 11.79 7.6264 11.6667C7.54399 11.5433 7.5 11.3983 7.5 11.25C7.5 11.0511 7.57902 10.8603 7.71967 10.7197C7.86032 10.579 8.05109 10.5 8.25 10.5ZM5.75 7.99998C5.89834 7.99998 6.04334 8.04397 6.16668 8.12638C6.29001 8.20879 6.38614 8.32592 6.44291 8.46297C6.49968 8.60001 6.51453 8.75081 6.48559 8.8963C6.45665 9.04179 6.38522 9.17542 6.28033 9.28031C6.17544 9.3852 6.0418 9.45663 5.89632 9.48557C5.75083 9.51451 5.60003 9.49966 5.46299 9.44289C5.32594 9.38613 5.20881 9.29 5.1264 9.16666C5.04399 9.04332 5 8.89832 5 8.74998C5 8.55107 5.07902 8.3603 5.21967 8.21965C5.36032 8.079 5.55109 7.99998 5.75 7.99998ZM5.75 10.5C5.89834 10.5 6.04334 10.544 6.16668 10.6264C6.29001 10.7088 6.38614 10.8259 6.44291 10.963C6.49968 11.1 6.51453 11.2508 6.48559 11.3963C6.45665 11.5418 6.38522 11.6754 6.28033 11.7803C6.17544 11.8852 6.0418 11.9566 5.89632 11.9856C5.75083 12.0145 5.60003 11.9997 5.46299 11.9429C5.32594 11.8861 5.20881 11.79 5.1264 11.6667C5.04399 11.5433 5 11.3983 5 11.25C5 11.0511 5.07902 10.8603 5.21967 10.7197C5.36032 10.579 5.55109 10.5 5.75 10.5ZM3.25 7.99998C3.39834 7.99998 3.54334 8.04397 3.66668 8.12638C3.79001 8.20879 3.88614 8.32592 3.94291 8.46297C3.99968 8.60001 4.01453 8.75081 3.98559 8.8963C3.95665 9.04179 3.88522 9.17542 3.78033 9.28031C3.67544 9.3852 3.5418 9.45663 3.39632 9.48557C3.25083 9.51451 3.10003 9.49966 2.96299 9.44289C2.82594 9.38613 2.70881 9.29 2.6264 9.16666C2.54399 9.04332 2.5 8.89832 2.5 8.74998C2.5 8.55107 2.57902 8.3603 2.71967 8.21965C2.86032 8.079 3.05109 7.99998 3.25 7.99998ZM3.25 10.5C3.39834 10.5 3.54334 10.544 3.66668 10.6264C3.79001 10.7088 3.88614 10.8259 3.94291 10.963C3.99968 11.1 4.01453 11.2508 3.98559 11.3963C3.95665 11.5418 3.88522 11.6754 3.78033 11.7803C3.67544 11.8852 3.5418 11.9566 3.39632 11.9856C3.25083 12.0145 3.10003 11.9997 2.96299 11.9429C2.82594 11.8861 2.70881 11.79 2.6264 11.6667C2.54399 11.5433 2.5 11.3983 2.5 11.25C2.5 11.0511 2.57902 10.8603 2.71967 10.7197C2.86032 10.579 3.05109 10.5 3.25 10.5Z" fill="#143249"/>
</svg>
