<svg width="12" height="13" viewBox="0 0 12 13" fill="none" xmlns="http://www.w3.org/2000/svg">
    <g clip-path="url(#clip0_11_147)">
    <path d="M7.31789 0.500001C7.37433 0.4999 7.43024 0.510925 7.48242 0.532446C7.5346 0.553967 7.58203 0.585562 7.62199 0.625424L11.8742 4.87779C11.9548 4.95834 12 5.06758 12 5.18147C12 5.29537 11.9548 5.4046 11.8742 5.48515C11.4619 5.8975 10.9534 5.99028 10.5831 5.99028C10.4311 5.99028 10.2953 5.97482 10.1879 5.95678L7.49571 8.64909C7.56658 8.93465 7.61257 9.22582 7.63316 9.51932C7.67267 10.1224 7.60567 10.9686 7.01465 11.5596C6.9341 11.6401 6.82487 11.6854 6.71098 11.6854C6.59708 11.6854 6.48785 11.6401 6.40731 11.5596L3.97708 9.13017L1.24361 11.8637C1.0761 12.0312 0.196444 12.6386 0.028931 12.4711C-0.138582 12.3036 0.46876 11.423 0.636273 11.2564L3.36974 8.52281L0.940373 6.09251C0.85985 6.01196 0.814615 5.90273 0.814615 5.78883C0.814615 5.67494 0.85985 5.5657 0.940373 5.48515C1.53139 4.89412 2.37755 4.82625 2.98059 4.86663C3.27409 4.88719 3.56525 4.93318 3.8508 5.00408L6.54304 2.31263C6.52056 2.18181 6.50907 2.04934 6.50867 1.9166C6.50867 1.5472 6.60145 1.03863 7.01465 0.625424C7.09515 0.545128 7.2042 0.500025 7.31789 0.500001Z" fill="currentColor"/>
    </g>
    <defs>
    <clipPath id="clip0_11_147">
    <rect width="12" height="12" fill="white" transform="translate(0 0.5)"/>
    </clipPath>
    </defs>
</svg>
